<svg xmlns="http://www.w3.org/2000/svg" width="74.111" height="100" viewBox="0 0 74.110641 99.999999"><defs><linearGradient x2="1" gradientUnits="userSpaceOnUse" gradientTransform="scale(194.97216) rotate(42.306 -.248 1.113)" id="a"><stop offset="0" stop-color="#f15822"/><stop offset=".592" stop-color="#c62b26"/><stop offset=".697" stop-color="#c62b26"/><stop offset="1" stop-color="#c62b26"/></linearGradient><linearGradient x2="1" gradientUnits="userSpaceOnUse" gradientTransform="rotate(-151.636 118.943 82.075) scale(150.05646)" id="b"><stop offset="0" stop-color="#125d47"/><stop offset=".007" stop-color="#125d47"/><stop offset=".727" stop-color="#1f866a"/><stop offset="1" stop-color="#1f866a"/></linearGradient></defs><path d="M9.196 58.859l-.32-.256-.641-.514-.641-.511-.608-.546-.578-.544-.544-.577-.544-.609-.513-.576-.449-.642-.448-.608-.45-.673-.384-.64-.352-.674-.32-.704-.289-.705-.256-.705-.225-.705-.192-.737-.128-.77-.096-.736-.064-.769-.033-.77v-.48l.033-.448.032-.48.064-.45.064-.448.096-.48.097-.45.096-.447.127-.449.129-.449.16-.448.16-.45.192-.415.16-.449.225-.416.192-.417.225-.417.256-.416.224-.417.257-.416.288-.384.288-.417.288-.384.29-.385.256-.32-.097-.065-.513-.449-.48-.48-.417-.544-.352-.577-.288-.577-.225-.609-.16-.608-.096-.641-.032-.641.032-.641.096-.64.16-.642.225-.609.288-.576.352-.577.449-.512.448-.481.545-.449.577-.384.64-.32.673-.289.705-.192.737-.16.737-.097.77-.031h31.912l11.567-16.47.897-1.153.93-1.057 1.025-.93 1.025-.801 1.09-.64 1.089-.546 1.153-.383 1.122-.257L63.025 0l1.121.032 1.09.096 1.057.257.994.32.961.449.897.512.833.609.801.673.705.737.64.8.545.865.481.897.417.962.288 1.026.192 1.024.064 1.09-.032 1.089-.193 1.09-.287 1.09-.449 1.056-.577 1.058-.705.993-.8.897-5.896 5.96.48.353.545.416.48.512.417.513.32.577.29.609.223.608.128.64.064.642v.673l-.064.641-.128.609-.192.64-.224.577-.32.577-.385.545-.417.512-.48.48-.513.45-.224.127.16.225.288.385.256.352.256.384.257.385.256.416.224.385.225.385.193.416.224.384.192.416.16.417.16.417.16.384.16.417.13.416.127.449.128.417.096.416.097.417.096.416.064.449.064.417.032.415.063.45.033.448V46.3l-.065.768-.127.769-.129.769-.192.737-.224.737-.288.737-.289.704-.352.705-.385.673-.416.674-.45.64-.48.64-.512.61-.545.608-.576.577-.577.577-.64.545-.642.545-.673.512-.705.48-.737.481-.768.48-.77.45-.8.449-.833.416-.865.384-.866.384-.897.353-.897.352-.897.32-.097.033-.096.032-.16.064-.352.128.032.032.16.032.192.033.16.063.161.032.16.065.16.064.16.031.16.064.16.065.193.064.128.064.16.096.097.032 1.12-.48 6.09-.513.864.353.128-.065.095-.032.13-.032.128-.032.128-.032.128-.032.128-.032.128-.032h.128l.128-.032.129-.032h.128l.128-.033h.257l.127-.032h.385l.128-.032h.768l.097.032H65.941l3.076.321-2.403 10.285H64.019v5.896l4.357.449-4.07 8.234 4.615 9.708L57.546 100l-.416-.961-9.196.961v-1.346l-.192.096-.257.097-.224.128-.224.096-.224.095-.258.065-.255.095-.225.065-.256.064-.256.064-.224.064-.257.064-.256.032-.257.033-.256.032-.256.03-.257.033-.256.032H41.942l-.256-.032-.257-.032-.256-.031-.256-.032-.257-.033-.256-.032-.256-.064-.257-.064-.224-.064-.256-.064-.257-.065-.224-.095-.256-.065-.224-.095-.257-.096-.224-.128-.224-.097-.225-.128-.224-.096-.224-.129-.224-.127-.192-.16-.225-.129-.192-.16-.193-.16-.192-.16-.224-.16-.16-.161-.16-.16-.16.16-.193.16-.192.16-.192.16-.192.16-.225.161-.192.129-.225.16-.192.127-.224.129-.224.096-.224.128-.224.097-.257.128-.224.096-.224.095-.257.065-.224.095-.256.065-.257.064-.224.064-.257.064-.256.064-.256.032-.257.033-.256.032-.256.03-.257.033-.256.032h-1.602l-.256-.032-.257-.032-.256-.031-.256-.032-.256-.033-.257-.032-.256-.064-.256-.064-.225-.064-.256-.064-.257-.065-.224-.095-.256-.065-.225-.095-.224-.096-.256-.128-.225-.097-.224-.128-.224-.096-.128-.097-.064.642-1.955.416-.096.032-.096.032h-.128l-.096.032-.096.032h-.128l-.097.032h-.096l-.128.032h-.096l-.096.033H19l-.096.032h-.097l-.096.03h-.128l-.096.033h-.224l-.096.032h-.321l-.128.032h-1.377l-.353-.032h-.32l-.321-.032-.32-.063-.32-.032-.289-.033-.32-.064-.32-.064-.29-.096-.32-.064-.288-.096-.32-.096-.29-.097-.287-.095-.289-.129-.288-.096-.288-.16-.29-.128-.255-.128-.288-.16-.257-.16-.256-.16-.256-.193-.257-.16-.256-.193-.224-.192-.257-.193-.224-.224-.225-.192-.224-.224-.224-.225-.224-.224-.192-.224-.193-.257-.192-.223-.192-.257-.192-.257-.16-.256-.193-.257-.128-.255-.16-.288-.16-.257-.129-.288-.128-.289-.128-.288-.128-.288-.096-.289-.097-.288-.095-.289-.097-.32-.064-.288-.063-.32-.065-.321-.064-.288-.064-.321-.032-.32-.032-.32-.032-.321-.033-.32-.031-.321v-1.154l.031-.191v-.481l.033-.16v-.16l.032-.16v-.16l.032-.161.032-.16v-.16l.032-.161.032-.16.032-.16.032-.16.033-.16.032-.16.031-.13.032-.16.064-.16.032-.16.033-.16.064-.127.032-.161.064-.16.032-.16.064-.129.064-.16.064-.16.064-.128.032-.16.064-.13-.096-.063L5 81.448l-.257-.192-.224-.193-.256-.192-.225-.192-.224-.225-.225-.224-.223-.224-.225-.224-.192-.225-.192-.224-.225-.256-.16-.256-.192-.256-.16-.257-.193-.256-.16-.257-.127-.256-.16-.289-.129-.287-.129-.289-.127-.256-.129-.289-.096-.32-.096-.29-.096-.287-.096-.288-.064-.321-.096-.32-.065-.288-.032-.321-.063-.32-.032-.321-.065-.32-.032-.32v-.321L0 71.772V70.457l.032-.16v-.353l.032-.16v-.16l.033-.16v-.16l.032-.161v-.16l.032-.16.032-.16.031-.16.032-.16.032-.16.033-.13.032-.16.032-.16.032-.16.032-.16.064-.16.032-.129.064-.16.032-.16.064-.16.032-.128.065-.16.063-.128.033-.16.063-.161.065-.128.064-.16.064-.16.064-.128.096-.13.064-.16.064-.128.065-.127.096-.16.063-.129.097-.128.063-.16.097-.128.096-.128.064-.129.096-.128.097-.128.095-.128.097-.129.096-.127.096-.129.096-.128.096-.096.096-.128.128-.128.097-.128.096-.097.128-.128.096-.096.128-.128.096-.096.096-.096.097-.096.127-.097.097-.095.128-.097.096-.096.128-.096.129-.096.095-.096.129-.097.128-.095.096-.064.128-.097.129-.096.127-.064.129-.096.095-.064.13-.097.127-.064.128-.063.128-.096.129-.065.16-.063.128-.065.128-.064.128-.064.129-.064.127-.064.161-.065.128-.063.128-.064.129-.064.16-.032.127-.064.16-.064.129-.033.128-.064.16-.032.129-.064.16-.032.128-.032.16-.032.096-.032z" fill="#fff" fill-rule="evenodd"/><path d="M166.199 169.168c2.1-1.429-4.368-13.943-12.094-16.63-1.008-.335-4.703-.841-5.208-.841l-30.487.169c-26.205.252-29.564-26.959-12.095-36.786 5.042-2.839 10.013-5.206 14.95-7.049v-6.908l-10.667 1.106-3.277-15.286-4.113 15.286-11.154-1.478-1.78 12.732c-1.177.419-2.352.672-3.613.84-1.344.17-2.686.252-4.282.252-3.36 0-6.553-.586-9.66-1.764a25.818 25.818 0 0 1-8.061-5.292c-2.52-2.349-4.368-5.207-5.713-8.397-1.259-3.191-1.847-6.722-1.847-10.666 0-7.729 2.436-14.027 7.307-18.9 2.78-2.778 6.04-4.736 9.764-5.93a22.663 22.663 0 0 1-3.968-6.581c-1.346-3.278-1.933-6.803-1.933-10.669 0-7.809 2.435-14.108 7.308-18.979 4.871-4.787 11.171-7.225 18.981-7.225 1.175 0 2.351.084 3.611.252 1.26.085 2.52.338 3.78.587l1.617 12.939c.883-3.187 2.511-5.948 4.849-8.236 3.781-3.695 8.651-5.458 14.699-5.458 5.962 0 10.835 1.763 14.613 5.458 2.351 2.246 3.954 4.952 4.829 8.068.878-3.116 2.479-5.822 4.831-8.068 3.778-3.695 8.651-5.458 14.612-5.458h.086c5.962 0 10.833 1.763 14.613 5.458 3.695 3.611 5.626 8.401 5.626 14.194 0 5.796-1.931 10.498-5.626 14.113-3.78 3.695-8.651 5.459-14.613 5.459h-.086c-5.961 0-10.834-1.764-14.612-5.459-2.308-2.257-3.928-4.937-4.819-8.044-.875 3.107-2.48 5.787-4.841 8.044-3.778 3.695-8.651 5.459-14.613 5.459-4.627 0-8.589-1.075-11.902-3.279l10.054 36.461v-7.817c0-7.225 1.763-12.768 5.124-16.714 3.359-3.866 8.23-5.796 14.529-5.796h.421c6.047.083 11.002 1.848 14.78 5.373 2.383 2.279 3.997 4.993 4.866 8.159.896-3.104 2.505-5.784 4.794-8.074 3.357-3.274 7.644-5.037 12.849-5.375.589-.083 1.177-.083 1.764-.083.768 0 1.524.031 2.268.088V20.594l14.362 1.51v18.395l8.231-19.905 15.035 2.351-9.576 20.071 7.728 15.539-14.865 1.428-6.553-16.294v19.045l13.773 1.531v16.884c0 2.436.588 4.283 1.848 5.373 1.261 1.093 3.193 1.681 5.881 1.681h.504l3.188 13.689h-.752c-.253.085-.672.085-1.26.085-2.855 0-5.126-.588-6.888-1.598-1.763-1.005-3.023-2.6-3.781-4.785v6.045l-13.101-1.175v-7.799c-1.706 2.602-3.746 4.674-6.048 6.121-2.854 1.93-6.215 2.853-9.994 2.853-.587 0-1.175 0-1.764-.081-5.205-.337-9.492-2.102-12.849-5.377-2.275-2.222-3.876-4.863-4.774-7.913-.74 2.92-2.042 5.423-3.962 7.493-3.191 3.528-7.221 5.29-12.346 5.29-1.175 0-2.352-.084-3.358-.335a6.668 6.668 0 0 1-1.848-.502c-1.512-.588-2.772-1.428-3.947-2.52v6.531c14.107-2.149 28.165.689 42.92 10.2-.048-.008-.063.008-.004.068 9.408 6.968 13.439 20.574 11.759 25.11-.588 1.594-2.603-2.771-3.443-3.445-9.407-8.902-19.652-6.884-23.179-5.374-2.436 1.09-.757 4.871-.086 5.374 12.935 12.013 16.63 18.899 5.29 31.498-.63.699-2.486 1.633-2.696 1.633-.042 0-.02-.037.094-.121M75.995 80.054c-2.184 2.101-3.359 4.956-3.359 8.402 0 3.442 1.092 6.215 3.275 8.398 2.185 2.1 5.04 3.19 8.398 3.19 1.346 0 2.606-.167 4.032-.502.465-.116.931-.274 1.397-.446l10.066-27.293a26.93 26.93 0 0 1-2.056.358c-1.26.253-2.687.338-4.198.338-.527 0-1.046-.046-1.568-.079l.895 6.881c-1.26-.842-2.603-1.429-3.948-1.848-1.345-.336-2.686-.588-4.199-.588-3.611 0-6.551 1.092-8.735 3.189m97.847 3.109c-.084.422-.17.839-.17 1.178 0 2.014.59 3.527 1.683 4.702a5.529 5.529 0 0 0 3.273 1.595c.42 0 .842.085 1.259.085.674 0 1.346-.17 1.934-.42.672-.253 1.26-.672 1.762-1.175l-4.955-3.78-4.366-3.446c-.252.423-.335.84-.42 1.261m6.968-7.811c-.588.085-1.09.252-1.762.42l17.386 13.567V73.791l-2.611-.228-2.932 5.15c-1.679-1.26-3.192-2.101-4.535-2.689a9.843 9.843 0 0 0-3.948-.84c-.503 0-1.09 0-1.598.168m-43.672 2.605c-1.007 1.09-1.594 2.52-1.594 4.283 0 1.68.587 3.192 1.594 4.282 1.091 1.093 2.436 1.681 4.117 1.681h.084c1.595 0 3.022-.588 4.031-1.681 1.092-1.09 1.679-2.602 1.679-4.282 0-1.763-.587-3.193-1.679-4.283-1.009-1.092-2.436-1.597-4.031-1.597h-.084c-1.681 0-3.026.505-4.117 1.597M87.166 37.975c-2.267 2.103-3.359 4.876-3.359 8.401 0 3.361 1.092 6.216 3.274 8.316 2.184 2.183 4.956 3.191 8.4 3.191.5 0 1.021-.047 1.543-.099l-2.131-5.948 10.882-1.118c-1.971-3.042-2.987-6.638-2.987-10.81 0-1.157.099-2.263.252-3.339a11.613 11.613 0 0 0-2.94-1.194c-1.344-.419-2.771-.587-4.2-.587-3.61 0-6.55 1.006-8.734 3.187m70.718-1.928c-1.009 1.006-1.512 2.351-1.512 4.031 0 1.681.503 3.023 1.594 4.116 1.095 1.008 2.437 1.595 4.032 1.595h.086c1.594 0 3.023-.587 4.03-1.595 1.092-1.093 1.597-2.435 1.597-4.116 0-1.68-.505-3.025-1.597-4.031-1.007-1.091-2.351-1.597-4.03-1.597h-.086c-1.677 0-3.022.588-4.114 1.597m-38.886 0c-1.093 1.006-1.597 2.351-1.597 4.031 0 1.681.504 3.023 1.597 4.116 1.092 1.008 2.435 1.595 4.115 1.595 1.679 0 3.023-.587 4.032-1.595 1.091-1.093 1.595-2.435 1.595-4.116 0-1.68-.504-3.025-1.595-4.031-1.009-1.091-2.353-1.597-4.032-1.597-1.765 0-3.109.588-4.115 1.597" fill="url(#a)" transform="matrix(.3815 0 0 -.3815 -18.899 105.1)"/><path d="M212.978 267.517c-5.708-1.091-11.589-4.786-16.795-12.178l-32.42-46.11c-.252-.42-.923 0-1.426 0l-85.754-.083c-16.714 0-16.714-20.158.084-20.83.672-.084-.923-.923-1.429-1.344-9.574-8.734-15.201-19.149-15.201-29.731 0-17.468 15.287-32.84 38.216-41.573.336-.17 1.51-.758 1.175-.423-21.669 19.488-7.307 41.744 16.377 41.912l34.856.337c.588 0 3.779 1.006 4.872 1.512 7.641 4.031 7.895 15.2 6.216 16.292-.757.503 2.097-.252 3.777-1.092 24.442-12.011 15.035-32.421 4.033-39.895-.282-.222-.375-.222-.283-.222.047 0 .142 0 .283-.03 3.948-.672 15.035 2.268 20.66 12.6.672 1.091.84.588 1.344.252 4.536-3.193 3.696-24.022-7.055-31.915-.337-.253.84.335 1.176.419 11.003 3.696 20.41 9.407 27.294 16.379v51.567c-.837.84-1.678 1.764-2.518 2.603-.504.421-2.855 2.017-2.185 2.017 1.765.168 3.278.42 4.703.925v19.736c-1.09.252-2.266.336-3.61.336-.755 0-2.602-.253-2.098.251l5.708 5.88 18.142 18.392c3.613 3.696 5.46 7.728 5.966 11.759v4.368c-1.132 9.821-10.149 18.215-20.568 18.215a19.66 19.66 0 0 1-3.54-.326m-5.458-32.586c-2.77 2.35-3.023 7.558.085 11.337 1.428 1.68 3.36 2.856 5.373 3.444 2.271.588 4.621.337 6.133-.84 2.771-2.352 1.428-6.887-1.68-10.584-1.342-1.679-2.94-2.939-4.453-3.693-.89-.426-1.799-.656-2.668-.656-1.014 0-1.975.313-2.79.992m5.458-46.025c11.339 3.695 11.594 17.384 0 19.736v-19.736zm0-57.112c13.859 14.024 16.967 33.342 0 51.567v-51.567z" fill="url(#b)" transform="matrix(.3815 0 0 -.3815 -18.899 105.1)"/></svg>